<?xml version="1.0" standalone="no"?>
<!DOCTYPE svg PUBLIC "-//W3C//DTD SVG 20010904//EN"
 "http://www.w3.org/TR/2001/REC-SVG-20010904/DTD/svg10.dtd">
<svg version="1.0" xmlns="http://www.w3.org/2000/svg"
 width="800.000000pt" height="800.000000pt" viewBox="0 0 800.000000 800.000000"
 preserveAspectRatio="xMidYMid meet">

<g transform="translate(0.000000,800.000000) scale(0.100000,-0.100000)"
fill="#000000" stroke="none">
<path d="M0 4000 l0 -4000 1128 1 1127 0 -75 20 c-514 133 -743 731 -453 1184
35 55 341 367 1411 1437 l1367 1368 -1375 1377 c-1054 1056 -1383 1392 -1409
1436 -127 218 -143 497 -41 723 98 217 308 390 535 439 51 11 -114 14 -1077
14 l-1138 1 0 -4000z"/>
<path d="M2585 7980 c87 -22 168 -58 242 -106 38 -24 613 -590 1658 -1631 880
-877 1641 -1633 1690 -1681 100 -96 153 -182 197 -322 20 -65 23 -95 23 -230
0 -118 -5 -171 -18 -220 -44 -156 -147 -314 -264 -401 -32 -24 -782 -767
-1668 -1650 l-1610 -1606 -90 -45 c-77 -40 -148 -65 -230 -82 -11 -2 1219 -4
2733 -5 l2752 -1 0 4000 0 4000 -2742 -1 c-2683 0 -2741 -1 -2673 -19z"/>
</g>
</svg>
